<svg width="1145" height="578" viewBox="0 0 1145 578" fill="none" xmlns="http://www.w3.org/2000/svg">
<g clip-path="url(#clip0_257_29)">
<path d="M1034.42 469.491H163.835C152.706 469.479 142.036 465.052 134.166 457.182C126.297 449.313 121.87 438.643 121.857 427.513V97.1641C121.87 86.0347 126.297 75.3647 134.166 67.4951C142.036 59.6254 152.706 55.1987 163.835 55.186H1034.42C1045.55 55.1987 1056.22 59.6254 1064.09 67.4951C1071.96 75.3647 1076.39 86.0347 1076.4 97.1641V427.513C1076.39 438.643 1071.96 449.313 1064.09 457.182C1056.22 465.052 1045.55 469.479 1034.42 469.491Z" fill="white"/>
<path d="M1034.42 469.491H163.835C152.706 469.479 142.036 465.052 134.166 457.182C126.297 449.313 121.87 438.643 121.857 427.513V97.1641C121.87 86.0347 126.297 75.3647 134.166 67.4951C142.036 59.6254 152.706 55.1987 163.835 55.186H1034.42C1045.55 55.1987 1056.22 59.6254 1064.09 67.4951C1071.96 75.3647 1076.39 86.0347 1076.4 97.1641V427.513C1076.39 438.643 1071.96 449.313 1064.09 457.182C1056.22 465.052 1045.55 469.479 1034.42 469.491ZM163.835 58.8363C153.67 58.8363 143.921 62.8744 136.734 70.0622C129.546 77.2501 125.508 86.9989 125.508 97.1641V427.513C125.508 432.546 126.499 437.53 128.425 442.181C130.351 446.831 133.175 451.056 136.734 454.615C140.293 458.174 144.518 460.997 149.168 462.923C153.818 464.85 158.802 465.841 163.835 465.841H1034.42C1039.46 465.841 1044.44 464.85 1049.09 462.923C1053.74 460.997 1057.97 458.174 1061.53 454.615C1065.09 451.056 1067.91 446.831 1069.83 442.181C1071.76 437.53 1072.75 432.546 1072.75 427.513V302.954C1072.75 238.21 1047.03 176.118 1001.25 130.337C955.471 84.5558 893.378 58.8363 828.634 58.8363H163.835Z" fill="url(#paint0_linear_257_29)"/>
<path d="M94.9516 539.817C95.3076 537.37 92.7446 534.971 89.227 534.46C85.7093 533.948 82.5691 535.517 82.213 537.964C81.857 540.411 84.42 542.809 87.9376 543.321C91.4553 543.833 94.5956 542.264 94.9516 539.817Z" fill="white"/>
<path d="M136.832 535.73C137.189 533.283 134.625 530.885 131.108 530.373C127.59 529.861 124.45 531.43 124.094 533.877C123.738 536.324 126.301 538.723 129.819 539.234C133.336 539.746 136.476 538.177 136.832 535.73Z" fill="#3F3D56"/>
<path d="M83.4829 505.911C83.8389 503.464 81.2759 501.065 77.7582 500.553C74.2406 500.042 71.1003 501.61 70.7443 504.057C70.3882 506.505 72.9512 508.903 76.4689 509.415C79.9866 509.927 83.1268 508.358 83.4829 505.911Z" fill="#FF6584"/>
<path d="M65.2838 492.022C65.3008 489.775 64.0477 487.945 62.4849 487.933C60.9221 487.921 59.6415 489.733 59.6245 491.979C59.6075 494.226 60.8606 496.056 62.4234 496.068C63.9862 496.08 65.2668 494.269 65.2838 492.022Z" fill="#E6E6E6"/>
<path d="M59.1129 466.153C59.1299 463.907 57.8768 462.076 56.314 462.064C54.7512 462.053 53.4706 463.864 53.4536 466.111C53.4366 468.357 54.6897 470.188 56.2525 470.2C57.8153 470.211 59.0959 468.4 59.1129 466.153Z" fill="#3F3D56"/>
<path d="M107.104 511.681C107.121 509.434 105.868 507.603 104.305 507.592C102.742 507.58 101.462 509.391 101.445 511.638C101.428 513.884 102.681 515.715 104.244 515.727C105.807 515.739 107.087 513.927 107.104 511.681Z" fill="#E6E6E6"/>
<path d="M86.8659 521.786C86.8829 519.539 85.6297 517.708 84.067 517.697C82.5042 517.685 81.2235 519.496 81.2065 521.743C81.1896 523.989 82.4427 525.82 84.0054 525.832C85.5682 525.844 86.8489 524.032 86.8659 521.786Z" fill="#FF6584"/>
<path d="M115.039 540.463C115.056 538.216 113.803 536.386 112.24 536.374C110.677 536.362 109.396 538.174 109.379 540.42C109.362 542.667 110.616 544.497 112.178 544.509C113.741 544.521 115.022 542.709 115.039 540.463Z" fill="#3F3D56"/>
<path d="M1106.76 12.2689C1107.54 9.21344 1104.61 5.83419 1100.21 4.72109C1095.82 3.60799 1091.63 5.18255 1090.86 8.23803C1090.08 11.2935 1093.02 14.6729 1097.41 15.786C1101.8 16.8991 1105.99 15.3244 1106.76 12.2689Z" fill="white"/>
<path d="M1053.13 11.9228C1053.9 8.86733 1050.97 5.488 1046.58 4.3749C1042.18 3.2618 1037.99 4.83645 1037.22 7.89193C1036.45 10.9474 1039.38 14.3267 1043.77 15.4398C1048.16 16.5529 1052.35 14.9783 1053.13 11.9228Z" fill="#3F3D56"/>
<path d="M1116.83 56.7699C1117.6 53.7144 1114.67 50.3352 1110.28 49.2221C1105.89 48.109 1101.7 49.6835 1100.92 52.739C1100.15 55.7945 1103.08 59.1738 1107.47 60.2869C1111.87 61.4 1116.06 59.8254 1116.83 56.7699Z" fill="#FF6584"/>
<path d="M1129.33 73.5494C1129.65 70.7035 1128.3 68.2171 1126.33 67.9958C1124.35 67.7746 1122.48 69.9024 1122.16 72.7483C1121.85 75.5943 1123.19 78.0807 1125.17 78.3019C1127.15 78.5231 1129.02 76.3954 1129.33 73.5494Z" fill="#E6E6E6"/>
<path d="M1133.75 107.156C1134.07 104.31 1132.72 101.824 1130.74 101.603C1128.76 101.382 1126.9 103.509 1126.58 106.355C1126.26 109.201 1127.61 111.688 1129.59 111.909C1131.57 112.13 1133.43 110.002 1133.75 107.156Z" fill="#3F3D56"/>
<path d="M1078.91 43.107C1079.23 40.2611 1077.88 37.7747 1075.9 37.5535C1073.92 37.3322 1072.06 39.46 1071.74 42.3059C1071.42 45.1519 1072.77 47.6383 1074.75 47.8595C1076.73 48.0808 1078.59 45.953 1078.91 43.107Z" fill="#E6E6E6"/>
<path d="M1105.9 32.9664C1106.22 30.1205 1104.87 27.6341 1102.89 27.4128C1100.91 27.1916 1099.05 29.3194 1098.73 32.1653C1098.41 35.0113 1099.76 37.4977 1101.74 37.7189C1103.72 37.9401 1105.58 35.8124 1105.9 32.9664Z" fill="#FF6584"/>
<path d="M1072.65 5.56896C1072.96 2.72301 1071.62 0.236594 1069.64 0.0153769C1067.66 -0.205841 1065.79 1.92192 1065.48 4.76786C1065.16 7.61381 1066.51 10.1002 1068.49 10.3214C1070.46 10.5427 1072.33 8.41491 1072.65 5.56896Z" fill="#3F3D56"/>
<path d="M470.076 255.616C470.123 288.676 457.911 320.579 435.8 345.157V345.175C432.674 348.651 429.372 351.965 425.907 355.104C422.363 358.314 418.646 361.33 414.774 364.138C412.073 366.109 409.299 367.971 406.452 369.723C403.075 371.822 399.601 373.763 396.03 375.545C393.384 376.878 390.682 378.119 387.926 379.268C371.476 386.182 353.809 389.738 335.965 389.726C325.887 389.738 315.84 388.611 306.014 386.368C301.471 385.335 296.986 384.056 292.581 382.535C290.884 381.97 289.187 381.349 287.508 380.692C277.326 376.757 267.671 371.576 258.762 365.27C239.93 352.011 224.831 334.127 214.918 313.339C205.005 292.551 200.612 269.561 202.163 246.582C203.714 223.604 211.156 201.413 223.773 182.146C236.389 162.878 253.755 147.185 274.197 136.577C294.639 125.97 317.469 120.805 340.486 121.581C363.504 122.357 385.933 129.048 405.614 141.008C425.296 152.969 441.565 169.796 452.855 189.869C464.146 209.943 470.076 232.585 470.076 255.616Z" fill="#0EC5FF"/>
<path d="M869.318 177H593.669C591.369 176.989 589.164 174.087 587.538 168.931C585.913 163.775 585 156.786 585 149.5C585 142.213 585.913 135.225 587.538 130.069C589.164 124.913 591.369 122.011 593.669 122H869.318C871.621 122 873.829 124.897 875.457 130.055C877.085 135.212 878 142.206 878 149.5C878 156.793 877.085 163.788 875.457 168.945C873.829 174.103 871.621 177 869.318 177Z" fill="#6C63FF"/>
<path d="M870.692 237H638.308C636.369 236.995 634.51 235.676 633.14 233.332C631.77 230.989 631 227.812 631 224.5C631 221.188 631.77 218.011 633.14 215.668C634.51 213.324 636.369 212.005 638.308 212H870.692C872.631 212.005 874.49 213.324 875.86 215.668C877.23 218.011 878 221.188 878 224.5C878 227.812 877.23 230.989 875.86 233.332C874.49 235.676 872.631 236.995 870.692 237Z" fill="#E6E6E6"/>
<path d="M870.681 330H638.308C636.369 329.995 634.51 328.676 633.14 326.332C631.77 323.989 631 320.812 631 317.5C631 314.188 631.77 311.011 633.14 308.668C634.51 306.324 636.369 305.005 638.308 305H870.681C872.622 305 874.484 306.317 875.856 308.661C877.229 311.005 878 314.185 878 317.5C878 320.815 877.229 323.995 875.856 326.339C874.484 328.683 872.622 330 870.681 330Z" fill="#E6E6E6"/>
<path d="M291.968 570.833C265.801 536.028 250.676 497.106 250.18 452.732C249.337 450.34 249.477 447.712 250.57 445.424C251.662 443.136 253.617 441.374 256.006 440.526L345.2 408.967C347.591 408.124 350.219 408.263 352.507 409.356C354.796 410.448 356.557 412.403 357.406 414.793L399.193 532.894C400.036 535.286 399.896 537.914 398.804 540.202C397.712 542.49 395.757 544.252 393.367 545.101L304.174 576.659C301.783 577.503 299.155 577.363 296.867 576.27C294.578 575.178 292.817 573.223 291.968 570.833Z" fill="#E6E6E6"/>
<path d="M286.188 532.741C270.449 516.829 263.713 488.447 259.323 456.815C258.533 454.575 258.664 452.114 259.687 449.971C260.71 447.828 262.541 446.178 264.779 445.384L341.433 418.261C343.672 417.472 346.134 417.603 348.277 418.625C350.42 419.648 352.07 421.479 352.865 423.717L390.05 528.812C390.84 531.051 390.708 533.513 389.685 535.656C388.662 537.799 386.831 539.449 384.593 540.243L337.108 557.045C327.132 560.562 316.168 559.979 306.622 555.422C297.076 550.866 289.727 542.709 286.188 532.741Z" fill="white"/>
<path d="M353.891 480.332L294.18 501.646C293.709 501.814 293.21 501.888 292.711 501.863C292.212 501.838 291.723 501.715 291.272 501.501C290.82 501.287 290.415 500.986 290.08 500.616C289.745 500.245 289.486 499.813 289.318 499.342C289.15 498.872 289.077 498.373 289.101 497.874C289.126 497.375 289.249 496.886 289.463 496.434C289.677 495.983 289.978 495.578 290.348 495.243C290.719 494.908 291.151 494.649 291.622 494.481L351.333 473.167C352.283 472.828 353.329 472.88 354.241 473.312C355.153 473.744 355.856 474.52 356.195 475.471C356.534 476.421 356.482 477.467 356.05 478.378C355.618 479.29 354.841 479.993 353.891 480.332Z" fill="#6C63FF"/>
<path d="M300.302 477.309L287.166 481.998C286.695 482.167 286.196 482.241 285.697 482.216C285.197 482.192 284.708 482.069 284.256 481.855C283.804 481.641 283.399 481.34 283.063 480.97C282.728 480.599 282.469 480.166 282.3 479.696C282.132 479.225 282.059 478.725 282.084 478.226C282.109 477.727 282.232 477.237 282.446 476.786C282.661 476.334 282.962 475.929 283.333 475.594C283.704 475.259 284.137 475 284.608 474.833L297.744 470.144C298.215 469.975 298.714 469.901 299.214 469.925C299.713 469.95 300.202 470.073 300.654 470.287C301.106 470.5 301.511 470.801 301.847 471.172C302.182 471.542 302.442 471.975 302.61 472.446C302.778 472.917 302.851 473.416 302.826 473.916C302.801 474.415 302.678 474.904 302.464 475.356C302.249 475.807 301.948 476.212 301.577 476.548C301.206 476.883 300.773 477.141 300.302 477.309Z" fill="#6C63FF"/>
<path d="M365.134 511.833L305.423 533.147C304.473 533.485 303.428 533.432 302.517 532.999C301.606 532.567 300.904 531.791 300.565 530.841C300.226 529.892 300.278 528.847 300.709 527.935C301.141 527.024 301.916 526.321 302.865 525.981L362.577 504.667C363.527 504.329 364.572 504.382 365.483 504.815C366.394 505.247 367.096 506.023 367.434 506.973C367.773 507.922 367.722 508.967 367.29 509.879C366.859 510.79 366.083 511.493 365.134 511.833Z" fill="#6C63FF"/>
<path d="M359.512 496.082L299.801 517.396C298.851 517.736 297.805 517.683 296.893 517.251C295.981 516.819 295.278 516.043 294.939 515.092C294.6 514.142 294.652 513.096 295.084 512.185C295.516 511.273 296.293 510.57 297.243 510.231L356.954 488.917C357.425 488.749 357.924 488.674 358.423 488.699C358.923 488.723 359.412 488.846 359.864 489.06C360.316 489.274 360.721 489.575 361.057 489.945C361.392 490.316 361.651 490.749 361.819 491.22C361.988 491.69 362.061 492.19 362.036 492.689C362.011 493.188 361.888 493.678 361.674 494.129C361.459 494.581 361.158 494.986 360.787 495.321C360.416 495.656 359.983 495.915 359.512 496.082Z" fill="#6C63FF"/>
<path d="M305.291 194.941C307.236 210.63 318.107 223.565 333.915 223.565C341.507 223.565 348.787 220.549 354.155 215.181C359.523 209.813 362.539 202.533 362.539 194.941C362.539 179.133 349.656 167.779 333.915 166.317C317.213 164.766 302.795 174.799 305.291 194.941Z" fill="#2F2E41"/>
<path d="M358.834 387.773C341.307 390.786 323.357 390.309 306.015 386.368C314.246 381.823 339.214 384.616 358.834 387.773Z" fill="#2F2E41"/>
<path d="M247.428 438.121L261.178 404.893L272.011 410.911L265.468 444.713C266.124 446.854 266.169 449.136 265.598 451.302C265.028 453.467 263.864 455.431 262.239 456.971C260.614 458.512 258.591 459.569 256.398 460.023C254.205 460.477 251.929 460.31 249.826 459.542C247.722 458.773 245.875 457.433 244.491 455.673C243.108 453.912 242.243 451.8 241.994 449.574C241.745 447.348 242.121 445.098 243.081 443.074C244.041 441.051 245.547 439.336 247.428 438.121Z" fill="#FFB6B6"/>
<path d="M389.662 348.204V348.223C389.169 359.794 388.494 370.8 387.928 379.268C371.478 386.182 353.811 389.737 335.967 389.726C325.889 389.737 315.842 388.611 306.016 386.368C301.472 385.335 296.988 384.055 292.583 382.535C293.197 382.139 293.859 381.826 294.555 381.604C301.125 379.378 294.627 377.352 294.682 375.235C294.883 367.496 297.018 358.206 299.774 349.299L287.509 380.692L281.121 397.008C281.121 397.008 281.34 411.099 277.289 406.791C273.219 402.484 273.511 416.428 273.511 416.428C272.246 417.329 271.157 418.455 270.298 419.75C269.937 420.332 269.801 421.027 269.915 421.702V421.721C270.099 422.252 270.46 422.703 270.937 422.998C273.693 424.86 269.733 429.788 267.98 431.741C267.506 432.27 267.196 432.58 267.196 432.58L250.35 431.376V431.047C250.423 429.058 250.879 418.581 253.489 416.081C256.354 413.325 254.949 408.963 254.949 408.963C254.949 408.963 262.432 402.338 257.413 396.954C255.405 394.782 256.3 381.915 258.763 365.269C264.148 328.548 277.051 273.429 282.636 274.213C283.787 268.623 286.46 263.459 290.36 259.291C294.261 255.124 299.236 252.115 304.739 250.596L322.935 245.595L326.184 232.765H351.809L356.262 241.197L374.933 249.629L375.171 249.738L375.755 249.994L375.974 250.687C375.974 250.687 375.955 250.706 375.974 250.706L386.359 283.321C391.031 288.687 390.849 320.043 389.662 348.204Z" fill="#E1A258"/>
<path d="M433.296 413.926L415.944 382.428L427.412 377.731L449.715 403.959C451.796 404.786 453.606 406.176 454.94 407.975C456.274 409.774 457.08 411.909 457.268 414.14C457.455 416.372 457.016 418.611 456.001 420.607C454.985 422.603 453.433 424.276 451.519 425.438C449.604 426.6 447.404 427.205 445.164 427.185C442.925 427.165 440.736 426.521 438.842 425.325C436.949 424.129 435.427 422.428 434.447 420.414C433.467 418.401 433.069 416.154 433.296 413.926Z" fill="#FFB6B6"/>
<path d="M374.936 249.378C378.022 254.924 406.25 269.187 401.358 283.506C401.358 283.506 427.876 366.472 431.324 365.93C434.773 365.389 438.139 373.958 438.139 373.958C438.139 373.958 437.407 379.552 439.558 377.227C441.709 374.903 441.194 380.996 441.194 380.996C441.194 380.996 440.163 386.373 442.894 384.911C445.625 383.449 442.034 393.741 442.034 393.741L425.623 401.468L422.504 396.826C422.504 396.826 415.84 395.557 418.975 394.552C422.111 393.547 416.027 390.163 416.027 390.163C416.027 390.163 409.661 385.837 410.548 378.672C411.435 371.507 394.029 357.423 394.029 357.423C382.064 333.798 375.518 309.543 375.541 284.523L374.936 249.378Z" fill="#E1A258"/>
<path d="M337.08 225.265C351.098 225.265 362.462 213.901 362.462 199.883C362.462 185.865 351.098 174.5 337.08 174.5C323.061 174.5 311.697 185.865 311.697 199.883C311.697 213.901 323.061 225.265 337.08 225.265Z" fill="#FFB6B6"/>
<path d="M310.797 202.648C311.6 208.163 316.301 215.859 315.2 215.859C314.099 215.859 306.272 193.121 314.099 191.639C319.777 190.563 321.046 191.507 326.353 189.206L325.604 189.91C329.116 192.464 334.004 190.89 338.011 189.228C342.03 187.576 346.907 186.002 350.43 188.545C352.642 190.141 353.578 192.916 354.954 195.272C356.33 197.639 358.874 199.873 361.494 199.147C362.515 198.752 363.385 198.044 363.978 197.125C364.571 196.205 364.858 195.12 364.796 194.028C364.785 191.848 361.947 189.774 362.903 187.818C365.736 182.023 363.188 178.072 357.013 175.345C354.767 175.004 352.521 174.655 350.275 174.299C351.452 172.669 352.879 171.235 354.503 170.05C353.817 168.291 352.63 166.771 351.09 165.679C349.187 164.794 347.066 164.488 344.991 164.798C340.345 165.04 335.703 165.283 331.064 165.525C327.61 165.463 324.181 166.131 321.002 167.485C317.171 169.455 314.661 173.297 312.833 177.206C308.738 185.991 309.387 193.059 310.797 202.648Z" fill="#2F2E41"/>
<path d="M945.74 185.999H564.02C563.6 185.999 563.197 185.832 562.9 185.535C562.603 185.238 562.436 184.835 562.436 184.414C562.436 183.994 562.603 183.591 562.9 183.294C563.197 182.997 563.6 182.83 564.02 182.83H945.74C946.16 182.83 946.563 182.997 946.861 183.294C947.158 183.591 947.325 183.994 947.325 184.414C947.325 184.835 947.158 185.238 946.861 185.535C946.563 185.832 946.16 185.999 945.74 185.999Z" fill="#FFC227"/>
<path d="M945.74 284.262H564.02C563.6 284.262 563.197 284.095 562.9 283.797C562.603 283.5 562.436 283.097 562.436 282.677C562.436 282.256 562.603 281.853 562.9 281.556C563.197 281.259 563.6 281.092 564.02 281.092H945.74C946.16 281.092 946.563 281.259 946.861 281.556C947.158 281.853 947.325 282.256 947.325 282.677C947.325 283.097 947.158 283.5 946.861 283.797C946.563 284.095 946.16 284.262 945.74 284.262Z" fill="#0B9BF5"/>
<path d="M945.74 382.524H564.02C563.6 382.524 563.197 382.357 562.9 382.06C562.603 381.762 562.436 381.359 562.436 380.939C562.436 380.519 562.603 380.115 562.9 379.818C563.197 379.521 563.6 379.354 564.02 379.354H945.74C946.16 379.354 946.563 379.521 946.861 379.818C947.158 380.115 947.325 380.519 947.325 380.939C947.325 381.359 947.158 381.762 946.861 382.06C946.563 382.357 946.16 382.524 945.74 382.524Z" fill="#0B9BF5"/>
<path d="M1002.56 376.241C988.582 376.241 975.067 371.251 964.447 362.169C960.904 359.136 957.129 353.864 953.227 346.499C950.737 341.755 949.342 336.514 949.146 331.16C948.949 325.806 949.955 320.476 952.091 315.562C950.032 317.656 947.756 319.523 945.3 321.132L944.059 321.958L943.987 320.469C943.94 319.501 943.916 318.536 943.916 317.601C943.916 312.092 948.083 306.502 946.161 301.409C938.061 279.946 912.371 258.616 949.604 225.399C953.048 222.326 948.447 216.183 948.447 211.534C948.447 165.972 1012.84 87.1483 1031.09 128.905C1053.6 180.401 1092.38 174.893 1109.56 185.529L1109.81 186.282L1109.07 186.579C1105.31 188.159 1101.35 189.212 1097.3 189.709C1101.62 190.589 1106.02 190.958 1110.43 190.808L1111.11 190.784L1111.27 191.447C1112.91 198.017 1113.74 204.763 1113.74 211.534L1113.73 212.266C1113.72 217.408 1114.79 222.497 1116.87 227.199C1118.95 231.901 1122.01 236.111 1125.83 239.555C1131.86 245.056 1136.68 251.753 1139.98 259.22C1143.28 266.687 1144.99 274.76 1145 282.924C1145 292.583 1138.43 305.262 1132.93 314.198C1131.53 316.474 1129.64 318.405 1127.39 319.845C1125.14 321.285 1122.6 322.197 1119.95 322.513C1117.43 322.83 1114.88 322.591 1112.48 321.813C1110.07 321.035 1107.86 319.737 1106.01 318.011C1108.61 323.252 1112.01 328.061 1116.08 332.27L1116.83 333.044L1115.9 333.588C1106.93 338.816 1096.74 341.569 1086.36 341.565L1085.75 341.563C1078.14 341.485 1070.59 342.926 1063.55 345.802C1056.5 348.678 1050.1 352.931 1044.72 358.312C1039.24 363.957 1032.69 368.451 1025.45 371.53C1018.21 374.608 1010.42 376.21 1002.56 376.241Z" fill="url(#paint1_linear_257_29)"/>
<path d="M982.383 469.106C982.129 469.106 981.884 469.014 981.692 468.848C981.501 468.681 981.376 468.451 981.34 468.2C978.582 443.609 978.417 418.796 980.848 394.17C984.488 355.321 996.177 299.366 1031.19 253.411C1031.28 253.301 1031.38 253.209 1031.5 253.139C1031.62 253.069 1031.75 253.024 1031.89 253.006C1032.03 252.987 1032.17 252.996 1032.3 253.031C1032.44 253.067 1032.56 253.128 1032.67 253.212C1032.78 253.296 1032.87 253.401 1032.94 253.52C1033.01 253.64 1033.06 253.772 1033.08 253.91C1033.1 254.047 1033.09 254.186 1033.05 254.32C1033.02 254.454 1032.96 254.58 1032.87 254.69C998.157 300.248 986.562 355.793 982.948 394.366C980.531 418.828 980.691 443.475 983.428 467.903C983.449 468.053 983.438 468.205 983.395 468.35C983.352 468.495 983.279 468.629 983.18 468.743C983.081 468.857 982.958 468.949 982.821 469.011C982.683 469.074 982.534 469.106 982.383 469.106Z" fill="#3F3D56"/>
<path d="M1010.96 318.233C1010.73 318.233 1010.52 318.163 1010.34 318.032C1010.16 317.901 1010.02 317.717 1009.95 317.505C1009.88 317.293 1009.88 317.065 1009.95 316.853C1010.02 316.641 1010.16 316.456 1010.34 316.325C1020.31 309.572 1031.09 304.085 1042.42 299.991C1060.13 293.51 1087.05 287.634 1114.76 296.454C1114.89 296.496 1115.02 296.564 1115.12 296.653C1115.23 296.743 1115.32 296.852 1115.38 296.975C1115.44 297.098 1115.48 297.232 1115.49 297.37C1115.5 297.508 1115.49 297.647 1115.45 297.779C1115.41 297.911 1115.34 298.033 1115.25 298.139C1115.16 298.245 1115.05 298.332 1114.93 298.396C1114.8 298.459 1114.67 298.498 1114.53 298.51C1114.39 298.522 1114.25 298.506 1114.12 298.464C1086.98 289.825 1060.54 295.603 1043.15 301.972C1032 305.995 1021.39 311.39 1011.58 318.032C1011.4 318.163 1011.18 318.233 1010.96 318.233Z" fill="#3F3D56"/>
<path d="M962.69 198.02C962.674 197.797 962.729 197.576 962.846 197.387C962.964 197.197 963.138 197.05 963.344 196.966C963.551 196.882 963.778 196.866 963.995 196.919C964.211 196.972 964.405 197.093 964.548 197.263C972.003 206.728 978.252 217.084 983.151 228.091C990.891 245.282 998.69 271.709 991.888 299.987C991.856 300.122 991.798 300.249 991.716 300.362C991.635 300.474 991.532 300.569 991.414 300.642C991.296 300.715 991.164 300.763 991.027 300.785C990.89 300.807 990.75 300.801 990.615 300.769C990.481 300.736 990.353 300.677 990.241 300.596C990.129 300.514 990.034 300.411 989.962 300.293C989.89 300.174 989.842 300.043 989.82 299.906C989.799 299.769 989.805 299.629 989.838 299.494C996.499 271.796 988.832 245.848 981.228 228.957C976.412 218.126 970.267 207.937 962.936 198.623C962.792 198.453 962.706 198.241 962.69 198.02Z" fill="#3F3D56"/>
<path d="M100.282 355.143C94.9007 349.762 88.4992 345.509 81.4531 342.633C74.4069 339.757 66.8577 338.316 59.2476 338.395L58.6398 338.396C48.261 338.4 38.0674 335.648 29.1016 330.42L28.1686 329.876L28.9201 329.102C32.9882 324.893 36.3852 320.083 38.9918 314.842C37.1405 316.568 34.9324 317.866 32.5239 318.644C30.1154 319.422 27.5652 319.661 25.054 319.345C22.4028 319.029 19.8575 318.116 17.6092 316.676C15.3609 315.236 13.4678 313.306 12.072 311.029C6.56475 302.094 0 289.415 0 279.756C0.0085707 271.592 1.71801 263.519 5.01938 256.052C8.32074 248.585 13.1416 241.887 19.1747 236.387C22.9942 232.943 26.0449 228.732 28.1281 224.03C30.2113 219.328 31.2801 214.24 31.2648 209.097L31.2618 208.365C31.2607 201.594 32.0882 194.849 33.7256 188.279L33.8918 187.616L34.5744 187.639C38.9762 187.789 43.3803 187.42 47.6958 186.54C43.6478 186.044 39.6879 184.99 35.9282 183.41L35.1938 183.113L35.443 182.361C52.6219 171.724 91.3995 177.232 113.907 125.736C132.158 83.9799 196.552 162.803 196.552 208.365C196.552 213.014 191.951 219.158 195.396 222.231C232.628 255.448 206.938 276.778 198.839 298.241C196.917 303.333 201.084 308.924 201.084 314.433C201.084 315.368 201.06 316.333 201.013 317.301L200.941 318.79L199.7 317.964C197.244 316.355 194.967 314.487 192.909 312.394C195.044 317.307 196.051 322.637 195.854 327.991C195.657 333.345 194.263 338.587 191.773 343.331C187.871 350.695 184.096 355.967 180.553 359C169.203 368.712 154.573 373.722 139.652 373.005C124.731 372.289 110.648 365.899 100.282 355.143Z" fill="url(#paint2_linear_257_29)"/>
<path d="M162.618 465.938C162.872 465.938 163.117 465.846 163.309 465.679C163.5 465.513 163.625 465.283 163.661 465.032C166.419 440.44 166.584 415.627 164.153 391.001C160.513 352.153 148.824 296.198 113.807 250.243C113.724 250.133 113.619 250.04 113.499 249.971C113.379 249.901 113.247 249.856 113.11 249.837C112.973 249.819 112.833 249.827 112.699 249.863C112.565 249.898 112.44 249.96 112.329 250.043C112.219 250.127 112.127 250.232 112.057 250.352C111.987 250.472 111.942 250.604 111.924 250.741C111.905 250.878 111.914 251.018 111.949 251.152C111.984 251.286 112.046 251.411 112.13 251.521C146.844 297.08 158.439 352.624 162.053 391.198C164.47 415.659 164.31 440.307 161.573 464.735C161.552 464.884 161.563 465.037 161.606 465.182C161.649 465.326 161.722 465.46 161.821 465.575C161.92 465.689 162.043 465.78 162.18 465.843C162.318 465.905 162.467 465.938 162.618 465.938Z" fill="#3F3D56"/>
<path d="M134.043 315.065C134.266 315.065 134.483 314.994 134.663 314.864C134.844 314.733 134.978 314.548 135.047 314.336C135.116 314.125 135.116 313.896 135.047 313.684C134.978 313.473 134.844 313.288 134.664 313.157C124.686 306.403 113.908 300.916 102.576 296.822C84.8727 290.341 57.952 284.465 30.2376 293.286C30.1057 293.328 29.9833 293.395 29.8774 293.485C29.7716 293.574 29.6844 293.683 29.6208 293.806C29.5572 293.929 29.5184 294.064 29.5067 294.202C29.495 294.34 29.5106 294.479 29.5526 294.61C29.5946 294.742 29.6621 294.865 29.7514 294.971C29.8407 295.077 29.95 295.164 30.073 295.227C30.196 295.291 30.3303 295.33 30.4683 295.341C30.6063 295.353 30.7452 295.338 30.8772 295.296C58.0237 286.656 84.4565 292.435 101.851 298.803C113 302.827 123.606 308.222 133.424 314.863C133.604 314.994 133.821 315.065 134.043 315.065Z" fill="#3F3D56"/>
<path d="M182.309 194.852C182.326 194.629 182.271 194.408 182.154 194.219C182.036 194.029 181.862 193.882 181.655 193.798C181.449 193.714 181.221 193.698 181.005 193.751C180.789 193.804 180.595 193.925 180.451 194.095C172.997 203.56 166.748 213.916 161.848 224.923C154.109 242.114 146.31 268.542 153.112 296.819C153.144 296.954 153.202 297.081 153.283 297.194C153.365 297.306 153.467 297.401 153.586 297.474C153.704 297.547 153.835 297.595 153.972 297.617C154.109 297.639 154.249 297.633 154.384 297.601C154.519 297.568 154.646 297.51 154.758 297.428C154.87 297.346 154.965 297.243 155.038 297.125C155.11 297.006 155.158 296.875 155.179 296.738C155.201 296.601 155.195 296.461 155.162 296.326C148.5 268.628 156.167 242.68 163.772 225.789C168.588 214.958 174.732 204.769 182.064 195.455C182.207 195.285 182.293 195.074 182.309 194.852Z" fill="#3F3D56"/>
</g>
<defs>
<linearGradient id="paint0_linear_257_29" x1="1076.4" y1="262.339" x2="121.857" y2="262.339" gradientUnits="userSpaceOnUse">
<stop stop-color="#0B9BF5"/>
<stop offset="1" stop-color="white"/>
</linearGradient>
<linearGradient id="paint1_linear_257_29" x1="1037.49" y1="117.089" x2="1037.49" y2="376.241" gradientUnits="userSpaceOnUse">
<stop stop-color="#00CB2D"/>
<stop offset="0.795" stop-color="#005235"/>
<stop offset="0.995" stop-color="#030027"/>
</linearGradient>
<linearGradient id="paint2_linear_257_29" x1="107.513" y1="113.92" x2="107.513" y2="373.073" gradientUnits="userSpaceOnUse">
<stop stop-color="#00CB2D"/>
<stop offset="0.795" stop-color="#005235"/>
<stop offset="0.995" stop-color="#030027"/>
</linearGradient>
<clipPath id="clip0_257_29">
<rect width="1145" height="577.208" fill="white"/>
</clipPath>
</defs>
</svg>
